<svg xmlns="http://www.w3.org/2000/svg" viewBox="0 0 128 128" role="img" aria-label="BabaiBazaar">
  <defs>
    <linearGradient id="bg" x1="0" y1="0" x2="1" y2="1">
      <stop offset="0%" stop-color="#10b981"/>
      <stop offset="100%" stop-color="#0ea5e9"/>
    </linearGradient>
  </defs>
  <rect x="4" y="4" width="120" height="120" rx="28" fill="url(#bg)"/>
  <circle cx="64" cy="64" r="41" fill="#ffffff" opacity="0.92"/>
  <path d="M44 37h18c10 0 16 5 16 13 0 5-3 9-8 11 7 2 11 6 11 13 0 10-8 17-20 17H44z" fill="#065f46"/>
  <path d="M54 46v12h8c4 0 7-2 7-6 0-4-3-6-7-6zm0 20v13h10c5 0 8-2 8-6 0-5-3-7-8-7z" fill="#10b981"/>
</svg>
